# xmcd
#
# Track frame offsets:
#	150
#	43572
#	76269
#	106003
#	146212
#
# Disc length: 2750 seconds
#
# Revision: 0
# Processed by: cddbd v1.5.2PL0 Copyright (c) Steve Scherf et al.
# Submitted via: dBpowerAMP V4.0
#
DISCID=370abc05
DTITLE=Folkvang - On the Wings of Destiny
DYEAR=2005
DGENRE=Black Metal
TTITLE0=Another Life Of Our World
TTITLE1=The Day Of Ragnarok
TTITLE2=Crushing Barriers, Ruling Destiny
TTITLE3=The Song Of New Day
TTITLE4=In The Tears Of Rain
EXTD=
EXTT0=
EXTT1=
EXTT2=
EXTT3=
EXTT4=
PLAYORDER=
